<?xml version="1.0" encoding="UTF-8" standalone="no"?>
<!-- Generator: Adobe Illustrator 19.2.1, SVG Export Plug-In . SVG Version: 6.00 Build 0)  -->

<svg
   xmlns:dc="http://purl.org/dc/elements/1.1/"
   xmlns:cc="http://creativecommons.org/ns#"
   xmlns:rdf="http://www.w3.org/1999/02/22-rdf-syntax-ns#"
   xmlns:svg="http://www.w3.org/2000/svg"
   xmlns="http://www.w3.org/2000/svg"
   xmlns:sodipodi="http://sodipodi.sourceforge.net/DTD/sodipodi-0.dtd"
   xmlns:inkscape="http://www.inkscape.org/namespaces/inkscape"
   version="1.1"
   id="Layer_1"
   x="0px"
   y="0px"
   viewBox="0 0 135.8 31.3"
   style="enable-background:new 0 0 135.8 31.3;"
   xml:space="preserve"
   inkscape:version="0.91 r13725"
   sodipodi:docname="camfil-logo.svg"><metadata
     id="metadata3458"><rdf:RDF><cc:Work
         rdf:about=""><dc:format>image/svg+xml</dc:format><dc:type
           rdf:resource="http://purl.org/dc/dcmitype/StillImage" /></cc:Work></rdf:RDF></metadata><defs
     id="defs3456" /><sodipodi:namedview
     pagecolor="#ffffff"
     bordercolor="#666666"
     borderopacity="1"
     objecttolerance="10"
     gridtolerance="10"
     guidetolerance="10"
     inkscape:pageopacity="0"
     inkscape:pageshadow="2"
     inkscape:window-width="1452"
     inkscape:window-height="863"
     id="namedview3454"
     showgrid="false"
     inkscape:zoom="9.5876287"
     inkscape:cx="-165.73441"
     inkscape:cy="15.65"
     inkscape:window-x="0"
     inkscape:window-y="0"
     inkscape:window-maximized="0"
     inkscape:current-layer="g3432" /><g
     id="g3432"><g
       id="g3434"><path
         d="M32.4,6.7h66.3l2.4-2.4H2.2l4.9,2.4h24c-0.3,0.3-0.5,0.6-0.8,0.9H0L4.9,10h23.7c-0.2,0.5-0.5,0.9-0.7,1.5H7.7l4.9,2.4    h14.6c0,0-0.1,0.6-0.1,0.9H14.4l4.9,2.5H27c0,0.3,0,0.6,0.1,0.9h-6l4.9,2.4h1.6c0.8,2.4,2.4,4.2,4.1,5c0.3,0.1,0.4,0.2,0.4,0.2    l0,0l0,0c-1.9-2.6-1.9-5.3-1.2-7.6h-3c0-0.3-0.1-0.6-0.1-0.9h3.3c0.3-0.9,0.7-1.7,1.2-2.5h-4.4c0-0.3,0.1-0.9,0.1-0.9h4.8    c0,0,0.7-0.9,0.9-1.2s1-1.2,1-1.2h-5.9c0.2-0.5,0.5-1,0.8-1.5H36l2.2-2.4h-6.7C31.8,7.3,32.1,7,32.4,6.7"
         id="path3436"
         style="fill:#ffffff" /><path
         d="M51.5,17.4c0,0,0.1,0.9,0.7,0.8c0.6,0,0.6-0.9,0.6-0.9l-0.1-2.9c0,0-0.1-0.9-0.9-1.1c-1.1-0.4-2.9-0.9-4.8-0.9    c-1.7,0-4.1,0.2-6.3,2c-2.1,1.8-3.2,4.6-3.3,6.4c-0.1,1.4-0.2,5.3,2.6,7.7c2.6,2.2,5.5,2.3,6.8,2.3s3.5-0.4,5.4-1.4    c0,0,0.7-0.1,0.6-1.9c0-0.6-0.3-0.6-0.3-0.6s-0.1-0.1-0.5,0.3s-1.5,1.3-2.2,1.6c-0.7,0.3-1.8,0.7-3.3-0.3c-1.6-1-2.5-1.9-3.5-4.8    s-0.4-6.2,0.1-7.3s1.5-2.6,4-2.6C49.6,13.8,51.3,16.1,51.5,17.4"
         id="path3438"
         style="fill:#ffffff" /></g><path
       d="M69.4,20.4c0,2.1,0,6.2,0,6.2c0.1,0.7,1.2,0.7,1.8,0.7c0.5,0,0.4,0.6,0.2,0.7c-0.6,0.4-3.2,1.4-4.4,1.9   c-0.4,0.2-0.9,0.4-1.2,0.2c-0.4-0.4-0.5-1.6-0.8-1.6c-0.4-0.2-2.4,1.7-5,1.7c-1.7,0.1-3.4-0.6-4.2-2c-0.7-1.1-0.6-2.7-0.3-3.3   c0.2-0.4,0.6-1.1,1.1-1.5c1.5-1.6,5.4-2.2,8.2-2.7c0,0,0.1-4.5-0.3-5.1c-0.7-1.1-2.1-1.6-3.5-1.1c-0.6,0.3-1,0.6-1.1,1.3   s0.3,1.5,0.3,2c0,0.2,0,0.2-0.1,0.3c-0.8,0.4-2.5,1.1-3.4,1.5c-0.5,0.2-0.7,0-0.8-0.1c-0.7-0.6-0.5-2.2-0.2-2.7   c0.9-1.7,2.6-2.7,4.1-3.3c2.4-0.8,4.8-1.6,7.2-0.3C69.6,14.6,69.4,17.7,69.4,20.4 M61.2,27.6c1.1,0.4,3.5,0.2,3.5-0.9   c0.1-0.7,0-3.1,0-4.8c-2.2,0.3-4.5,1.3-4.8,3.4C59.8,26,60.3,27.2,61.2,27.6z"
       id="path3440"
       style="fill:#ffffff" /><g
       id="g3442"><path
         d="M100.8,27.5c0,0.8,1.1,0.9,1.8,1.2c0.6,0.2,0.7,1-0.2,1c-0.4,0-7.9,0-7.9,0c-0.6,0-0.6-0.7-0.1-0.9    c0.4-0.2,1.8-0.5,1.8-1.6c0,0,0-10.2,0-10.8c0-0.5-0.2-0.6-0.3-0.8c-1.4-1.8-4.2-1.3-5.9,0.2c-0.1,0.1-0.3,0.3-0.3,0.7    c0,1.2,0,10,0,10.9c0,0.8,1.1,0.9,1.8,1.2c0.6,0.2,0.7,1-0.2,1c-0.4,0-7.9,0-7.9,0c-0.6,0-0.6-0.7-0.1-0.9    c0.4-0.2,1.8-0.5,1.8-1.6V16.5c0-0.4-0.1-0.5-0.3-0.8c-1.4-1.6-3.4-1.3-5.6,0.1c-0.3,0.2-0.4,0.3-0.4,0.5v11.1    c0,0.8,1.1,0.9,1.8,1.2c0.6,0.2,0.7,1-0.2,1c-0.4,0-7.9,0-7.9,0c-0.6,0-0.6-0.7-0.1-0.9c0.4-0.2,1.8-0.4,1.8-1.6c0,0,0-10.4,0-11    c0-1.1-1.8-0.4-2.1-1c-0.1-0.2,0-0.6,0.3-0.8c1.2-0.6,2.8-1.2,4-1.7c0.7-0.3,1.5-0.5,1.5-0.5c0.5-0.1,0.9-0.2,0.9,0.3    c0,0.7-0.1,2.3,0.5,1.9c1.9-1.2,3.2-2.2,5.8-2.2c0.6,0,1,0.1,1.6,0.3c0.7,0.3,1,0.5,1.5,0.9s0.8,1.3,1.1,1.3    c0.3,0.1,0.6-0.2,0.6-0.2c0.7-0.4,1.2-0.8,1.4-0.9c0,0,1.4-0.9,2.4-1.2c2.5-0.7,3.9-0.3,5,0.4c1.2,0.7,1.5,1.3,1.9,2.3    c0,0,0.2,0.4,0.2,1.1L100.8,27.5"
         id="path3444"
         style="fill:#ffffff" /><path
         d="M110.8,27.5c0,0.8,1.1,0.9,1.8,1.2c0.6,0.2,0.7,1-0.2,1c-0.4,0-7.9,0-7.9,0c-0.6,0-0.6-0.7-0.1-0.9    c0.4-0.2,1.8-0.5,1.8-1.6c0,0,0-9.1,0-13c0-0.2-0.1-0.2-0.2-0.2h-3c-0.3,0-0.3-0.3-0.2-0.4c0.4-0.6,0.7-0.9,0.9-1.1    c0.1-0.1,0.3-0.2,0.4-0.2c0.6,0,1.5,0,1.9,0c0.3-0.1,0.2-0.2,0.2-0.4c0-2.1,0-4.3,0-4.8c0-3.4,0.9-4.4,2.7-5.6    c2.5-1.4,5-1.9,8.3-1.3c0.4,0.1,0.8,0.5,0.8,1.3v3.6c0,0.9-1.4,0.9-1.4,0c-0.3-2.4-1-3.8-3.2-3.8c-2.7,0-2.7,2.8-2.7,4.7    s0,3.4,0,6.1c0,0.2,0.1,0.2,0.2,0.2c1.1,0,3.3,0,5,0c0.2,0,0.5,0.2,0.3,0.4c-0.2,0.3-0.2,0.4-0.6,0.9c-0.1,0.3-0.2,0.3-0.8,0.3    c-1.7,0-2.3,0-3.9,0c-0.2,0-0.2,0.2-0.2,0.2L110.8,27.5"
         id="path3446"
         style="fill:#ffffff" /><path
         d="M123.4,27.5c0,0.8,1,0.9,1.7,1.1c0.6,0.2,0.7,1-0.2,1c-0.4,0-7.9,0-7.9,0c-0.6,0-0.6-0.7-0.1-0.9c0.4-0.2,1.8-0.5,1.8-1.6    c0,0,0-10.6,0-11.2c0-1.2-1.4-0.9-2.1-1.1c-0.5-0.2-0.4-0.9,0.3-1.1c2.3-0.9,4-1.4,5.7-2c0.8-0.3,0.8,1.2,0.8,1.8    C123.4,14.2,123.4,27.5,123.4,27.5"
         id="path3448"
         style="fill:#ffffff" /><path
         d="M128.3,4.7c0-0.4,0-0.6,0-0.6c0-1.2-1.9-1-2.4-1.2c-0.4-0.1-0.4-0.8,0-1c0.9-0.3,5.4-1.5,6.1-1.7s0.9-0.1,0.9,0.7v26.5    c0,0.8,1.1,0.9,1.8,1.2c0.6,0.2,0.7,1-0.2,1c-0.4,0-7.9,0-7.9,0c-0.6,0-0.6-0.7-0.1-0.9c0.4-0.2,1.8-0.5,1.8-1.6    C128.3,27.2,128.3,8.2,128.3,4.7"
         id="path3450"
         style="fill:#ffffff" /></g><path
       d="M120.4,10.6c1.4,0,2.5-1.1,2.5-2.5s-1.1-2.5-2.5-2.5s-2.5,1.1-2.5,2.5S119,10.6,120.4,10.6"
       id="path3452"
       style="fill:#ffffff" /></g></svg>